<svg width="322" height="153" viewBox="0 0 322 153" fill="none" xmlns="http://www.w3.org/2000/svg">
<path d="M0 46.3461C0 46.3461 0.22154 46.0803 0.265848 45.903C0.797543 43.5104 2.74709 42.447 4.82957 42.4027C5.67142 42.4027 6.51327 42.4027 7.44373 42.4027C7.48804 41.9596 7.57666 41.6052 7.57666 41.2507C7.66527 36.5541 9.12744 32.2119 11.6087 28.3128C14.3558 23.9706 18.1663 20.8247 22.73 18.5207C27.6925 16.0395 32.6106 13.4696 37.3959 10.6782C41.6052 8.24128 45.5043 5.36126 48.6501 1.59509C49.0932 1.06339 49.492 0.531695 49.8907 0C50.7326 1.01908 51.5744 2.03817 52.5049 3.01294C55.4292 6.1145 58.8853 8.55143 62.5185 10.6782C66.0188 12.7607 69.6521 14.6659 73.241 16.6155C75.4564 17.8118 77.8047 18.9195 80.0201 20.1158C81.6595 21.002 83.0774 22.154 83.9636 23.882C84.6282 25.1669 85.0269 26.4518 85.2042 27.914C85.6916 31.7688 84.7611 35.4464 83.6534 39.0796C80.9063 48.0741 78.1592 57.1129 75.3678 66.1075C74.969 67.4367 74.2601 68.4115 72.9309 69.0761C70.2724 70.4053 67.7468 71.9561 65.177 73.374C64.7782 73.5955 64.2908 73.6841 63.8034 73.817C63.449 72.5764 63.9364 71.6016 64.2465 70.6269C65.5758 66.2404 66.9936 61.8982 68.3228 57.556C69.7407 52.9923 71.0699 48.4286 72.5321 43.8649C72.9309 42.6242 72.9309 41.4279 72.4435 40.2316C72.0004 39.1682 71.513 38.1048 71.0256 37.0414C70.8041 36.5984 70.6269 36.0667 70.0065 36.111C69.4305 36.1553 69.2976 36.6427 69.1204 37.0414C68.1013 39.7442 67.0822 42.4913 66.0631 45.1941C64.4237 49.5363 62.7844 53.9228 61.1893 58.2649C59.417 63.0502 57.6446 67.8355 55.8723 72.6207C53.9671 77.7161 52.0618 82.8116 50.1566 87.907C48.34 92.7365 46.5676 97.5661 44.7953 102.44C43.9092 104.788 43.1116 107.137 42.1812 109.441C41.3393 111.523 41.1621 113.561 41.9153 115.732C42.8015 118.347 43.5104 121.049 44.3523 123.708C44.4852 124.195 44.751 124.638 45.0169 125.037C45.7701 126.233 46.8335 125.835 47.4095 124.948C47.6753 124.55 47.8083 124.018 47.9855 123.575C49.6692 118.081 51.3972 112.542 53.0809 107.048C54.9418 101.111 56.7585 95.1292 58.6194 89.1919C59.0625 87.8183 59.5499 86.4448 59.993 85.0713C60.2145 84.3623 60.7019 83.8749 61.3222 83.4762C64.2022 81.7482 67.1265 79.9758 70.0065 78.2478C70.4939 77.982 70.9813 77.5389 71.7346 77.982C71.4244 79.0011 71.1586 80.0645 70.8484 81.1278C69.4305 85.9131 67.9241 90.6541 66.5948 95.4393C65.9302 97.8763 65.6644 100.402 66.3733 102.927C67.3924 106.516 69.9179 107.358 72.8866 106.782C75.8995 106.206 78.4694 104.611 80.8177 102.706C85.3371 99.0283 89.7679 95.2178 94.2873 91.4516C95.0405 90.8313 95.8824 90.211 96.7685 89.8122C98.5409 89.0147 99.8701 89.9451 99.8701 91.8504C99.8701 96.5027 99.8701 101.155 99.8701 105.807C99.8701 107.846 97.8762 109.795 95.8381 109.839C94.819 109.839 93.7556 109.839 92.6479 109.839C92.5593 110.504 92.3821 111.08 92.3821 111.656C92.2048 116.486 90.5654 120.828 87.8626 124.815C85.2485 128.626 81.8811 131.506 77.7604 133.544C72.3992 136.203 67.0822 138.905 62.0311 142.051C58.7966 144.045 55.6508 146.216 52.9923 148.963C51.9289 150.071 51.0871 151.356 50.1566 152.597H49.8907C49.5363 151.356 48.6501 150.47 47.8083 149.584C44.9283 146.571 41.5608 144.178 38.0162 142.007C32.9651 138.905 27.6925 136.203 22.3755 133.588C19.85 132.348 17.4573 130.886 15.6407 128.67C14.533 127.297 13.8684 125.657 14.0013 123.929C14.1342 122.6 14.533 121.227 15.109 119.986C16.2167 117.505 17.9447 115.334 19.85 113.428C22.3312 110.903 24.9454 108.51 27.5152 106.029C29.1103 104.478 30.7497 103.016 32.3005 101.421C34.6488 99.0283 36.9085 96.547 38.5922 93.6227C40.8076 89.8122 40.6747 86.4005 37.8833 82.9445C37.2187 82.1026 36.5097 81.2165 35.6679 80.5518C33.5854 78.8681 31.4143 77.3174 29.2875 75.7223C27.2051 74.1715 25.1226 72.5764 23.5718 70.4939C21.7109 68.0127 21.3121 65.5314 23.0401 62.6957C24.7681 59.8157 27.2937 57.6446 29.8192 55.5179C31.3257 54.2329 32.8765 53.0366 34.383 51.8403C37.6618 49.3147 40.9848 46.8778 44.7953 45.1941C45.7701 44.751 46.8778 44.6181 47.9412 44.4852C48.9603 44.3523 49.7135 44.9283 49.7135 45.8144C49.7135 46.8778 49.7578 47.9855 49.5363 49.0489C48.783 52.2834 47.2323 55.2077 45.7258 58.132C44.5295 60.4803 43.2002 62.8287 42.447 65.3985C41.4722 68.6773 41.9596 71.6459 43.9535 74.393C44.8839 75.678 45.5486 75.678 46.612 74.4817C47.8526 73.0638 48.6058 71.3801 49.2704 69.6964C51.3972 64.3351 53.524 58.9739 55.5178 53.5683C56.8471 49.8464 57.8662 46.036 57.6889 42.0039C57.6003 40.719 57.3345 39.5227 56.6699 38.4593C56.0052 37.3959 55.0748 36.6427 53.8785 36.2882C52.0175 35.7122 50.1566 36.0667 48.34 36.6427C44.3966 37.8833 40.719 39.7885 37.3073 42.1369C34.7817 43.8649 32.3005 45.6372 29.8192 47.4095C26.0531 50.068 22.5084 52.948 19.3183 56.3154C17.7675 57.9548 16.4826 59.6828 15.4192 61.6767C13.5582 65.177 13.6468 68.5887 15.8622 71.9561C16.8813 73.5069 18.1219 74.8804 19.5398 76.0767C22.0654 78.1592 24.7238 80.1531 27.2937 82.2355C29.1546 83.7863 30.9269 85.47 31.946 87.7297C32.6106 89.2362 32.655 90.7427 31.8574 92.1605C31.3257 93.091 30.6611 93.9771 29.9522 94.7747C28.1799 96.8572 25.9201 98.408 23.7491 100.047C20.6475 102.396 17.5016 104.655 14.3115 106.871C11.4314 108.865 8.28559 110.238 4.60803 109.972C2.61417 109.839 1.24062 108.998 0.487387 107.137C0.354464 106.826 0.22154 106.561 0.0886159 106.25C0.0886159 86.3119 0.0886159 66.3733 0.0886159 46.4347L0 46.3461Z" fill="#055AA3"/>
<path d="M209.532 92.4264C210.108 93.0024 210.463 93.4898 210.906 93.7999C212.855 95.0848 214.938 94.9962 217.02 94.2873C219.457 93.4455 221.673 92.1605 223.401 90.2553C223.977 89.635 224.375 88.8374 224.863 88.1285C226.325 86.0017 228.363 84.5839 230.534 83.3432C231.465 82.8115 232.439 82.3242 233.591 81.7038C233.148 81.5709 232.971 81.4823 232.75 81.4823C231.376 81.4823 230.003 81.5709 228.629 81.6595C227.92 81.6595 227.211 81.7481 226.502 81.7481C225.483 81.7481 224.331 81.9697 223.799 80.7291C223.135 79.2669 223.223 77.8934 224.198 76.6084C224.42 76.2983 224.951 76.121 225.395 76.0767C228.009 75.9881 230.579 76.1654 233.148 76.4755C234.123 76.6084 235.187 76.4312 236.161 76.5641C238.022 76.83 239.795 76.4312 241.567 75.9438C243.162 75.5007 244.048 76.1654 244.137 77.8047C244.137 78.1149 244.137 78.3808 244.137 78.6909C244.27 80.5518 243.339 81.6595 241.744 82.4128C239.795 83.3432 237.801 84.2294 235.94 85.2928C234.079 86.4005 232.262 87.5525 231.022 89.502C230.047 91.0971 230.401 93.1353 232.307 94.0215C233.148 94.4202 234.035 94.5532 234.965 94.5975C237.801 94.7747 240.326 93.9328 242.719 92.5593C243.649 92.0276 244.137 91.363 244.27 90.1224C244.89 84.5839 247.371 80.1531 252.289 77.2731C254.15 76.2097 256.189 75.7666 258.315 75.9881C258.625 75.9881 258.98 76.2983 259.201 76.5641C259.423 76.83 259.467 77.2287 259.689 77.7604C260.442 77.7604 261.284 77.7604 262.126 77.7604C262.525 77.7604 262.968 77.8047 263.366 77.8934C263.987 78.0263 264.297 78.4251 264.253 79.0897C264.12 80.3303 264.075 81.5709 263.898 82.8115C263.455 85.9574 262.48 89.059 262.525 92.2934C262.525 94.0215 263.588 94.6861 265.05 93.7999C266.601 92.9138 267.974 91.8504 268.196 89.8565C268.285 88.7931 268.418 87.6854 268.728 86.6663C270.323 81.3937 273.602 77.7161 279.007 76.1654C279.716 75.9438 280.469 75.8552 281.134 75.678C281.533 73.1524 281.843 70.6712 282.33 68.2342C283.083 64.2022 284.103 60.1702 286.052 56.5369C286.628 55.4735 287.381 54.4988 288.179 53.6126C289.375 52.372 290.97 51.8846 292.654 52.1504C294.426 52.4163 295.534 53.6126 296.154 55.252C296.553 56.3597 296.775 57.4674 296.819 58.6637C297.129 63.8921 295.756 68.8102 293.983 73.6398C292.299 78.2921 290.084 82.6786 287.78 87.0208C287.559 87.4196 287.293 87.8183 287.115 88.2171C286.938 88.5716 286.717 89.0147 286.805 89.3691C287.027 90.5211 287.204 91.6731 287.647 92.7365C288.356 94.5088 289.995 94.3759 291.103 93.7999C291.856 93.3568 292.477 92.7365 293.186 92.2048C293.629 91.8504 293.717 91.4073 293.762 90.8756C293.983 85.1599 296.464 80.7291 301.25 77.6275C303.199 76.3426 305.37 75.8995 307.674 76.0324C308.206 76.0324 308.516 76.2983 308.738 76.7857C308.871 77.0958 309.004 77.406 309.137 77.8047C310.023 77.8047 310.953 77.8047 311.839 77.8047C313.301 77.8047 313.877 78.2921 313.7 79.7986C313.523 81.6152 313.169 83.3875 312.858 85.2042C312.504 87.5082 312.149 89.8122 311.839 92.0719C311.795 92.4264 311.884 92.8251 311.972 93.1796C312.194 93.9771 312.903 94.3759 313.7 94.1101C314.188 93.9328 314.719 93.7113 315.118 93.3125C316.403 92.0719 317.644 90.7427 318.84 89.4134C319.46 88.7045 320.081 87.9956 321.055 88.35C322.03 88.7045 322.03 89.7236 321.986 90.6097C321.986 91.8504 321.676 93.0467 320.745 93.9328C319.283 95.395 317.865 96.8572 316.314 98.1421C315.295 98.9839 314.055 99.427 312.637 99.5599C310.466 99.7372 308.959 98.8067 307.852 97.0344C307.586 96.6356 307.364 96.1925 307.01 95.6165C305.459 97.6547 303.864 99.3827 301.205 99.5599C298.591 99.7815 296.509 98.9839 294.914 96.7242C294.426 97.0787 293.983 97.4332 293.496 97.7433C291.901 98.9839 290.084 99.6043 288.046 99.5599C286.318 99.5599 284.989 98.8067 283.97 97.4775C283.482 96.8129 283.039 96.1039 282.507 95.3507C282.153 95.7495 281.843 96.1039 281.488 96.4584C280.336 97.7433 279.14 98.9839 277.323 99.3384C274.133 99.9587 271.563 99.5599 269.57 96.7685C269.525 96.7242 269.437 96.6356 269.259 96.5027C268.595 96.9901 267.93 97.5218 267.266 98.0535C265.848 99.1612 264.297 99.6486 262.48 99.6043C261.062 99.5599 259.999 98.8953 259.201 97.8319C258.714 97.1673 258.271 96.4584 257.828 95.7495C257.075 96.5027 256.277 97.2559 255.568 98.0535C253.441 100.313 248.169 100.18 246.219 97.4775C246.042 97.2559 245.82 97.0787 245.643 96.8572C244.89 97.2559 244.225 97.6547 243.516 98.0535C241.168 99.4713 238.643 100.18 235.896 100.092C234.256 100.092 232.617 100.092 231.022 99.7815C228.718 99.3384 226.635 98.4079 225.173 96.4584C224.996 96.2369 224.819 96.0153 224.597 95.7938C223.356 96.547 222.204 97.3002 221.008 97.9649C218.66 99.2941 216.09 99.6929 213.387 99.6043C211.305 99.5156 209.355 99.2055 207.538 98.0978C205.367 96.7685 203.994 94.8633 203.373 92.3821C203.373 92.2491 203.329 92.1162 203.285 92.0276C201.823 92.1162 200.405 92.2491 199.031 92.2491C196.949 92.2491 195.309 90.8313 194.822 88.8374C194.601 87.907 194.556 87.0651 194.778 86.1346C194.955 85.4257 194.778 84.6725 194.778 83.9192C194.024 83.5648 193.581 83.8306 193.138 84.318C191.72 85.8245 190.701 87.5968 189.904 89.502C189.018 91.6731 188.353 93.9771 187.6 96.2368C187.378 96.9015 187.157 97.5661 186.891 98.2307C186.536 99.1169 185.872 99.5156 184.941 99.5599C182.682 99.7372 182.017 99.2498 181.397 96.9901C181.352 96.7685 181.175 96.547 180.998 96.2368C180.599 96.4584 180.245 96.6356 179.89 96.8572C178.074 98.1864 176.08 99.1169 173.864 99.3827C170.497 99.8258 167.174 99.7815 164.205 97.8319C163.363 97.3002 162.699 96.547 161.857 95.8381C161.148 96.4141 160.306 96.9901 159.553 97.6104C157.293 99.5156 154.635 99.8258 151.888 99.4713C150.514 99.2941 149.495 98.4079 148.919 97.0344C148.254 95.395 148.299 93.667 148.565 91.9833C148.875 89.9451 149.318 87.907 149.628 85.8688C149.717 85.2042 149.628 84.5396 149.628 83.9192C148.83 83.4319 148.432 83.9192 148.033 84.3623C146.837 85.6916 145.906 87.1537 145.241 88.7931C144.355 91.0085 143.602 93.3125 142.76 95.5722C142.583 96.0596 142.45 96.5913 142.229 97.0787C141.254 99.5156 138.95 99.7815 137 99.4713C136.646 99.427 136.247 98.9396 136.07 98.5409C135.848 98.0092 135.76 97.4332 135.627 96.7242C135.006 97.2116 134.43 97.6547 133.81 98.0535C132.702 98.8067 131.55 99.427 130.177 99.5156C127.252 99.7372 125.569 97.9649 124.727 95.971C124.727 95.8824 124.638 95.7495 124.505 95.5279C124.151 95.971 123.796 96.3255 123.486 96.6799C121.492 99.1612 119.011 100.047 115.688 99.2498C113.606 98.7181 112.321 97.2559 111.656 95.3064C110.77 92.6922 110.903 90.0337 111.523 87.4196C112.188 84.5839 113.561 82.1026 115.555 80.0645C117.948 77.5832 120.739 75.9438 124.372 75.9438C125.392 75.9438 126.056 76.2097 126.322 77.2287C126.322 77.3617 126.455 77.4503 126.588 77.7604C127.385 77.7604 128.316 77.7604 129.202 77.7604C130.753 77.7604 131.417 78.558 131.152 80.0645C130.62 83.1217 130.044 86.1789 129.512 89.2805C129.379 90.078 129.246 90.9199 129.202 91.7617C129.158 92.5593 129.202 93.4011 129.955 93.8885C130.753 94.3759 131.595 94.1101 132.259 93.4898C133.367 92.4707 134.43 91.4073 135.449 90.3439C135.715 90.078 135.804 89.5907 135.804 89.1919C135.848 88.5273 135.804 87.8627 135.804 87.198C135.76 84.5839 136.025 81.9697 136.291 79.3555C136.646 75.7223 137.266 72.1333 138.064 68.5444C139.038 64.3794 140.456 60.3031 142.672 56.6256C143.735 54.8532 145.064 53.3025 147.102 52.5492C150.293 51.3972 152.73 52.5049 153.926 55.6065C154.59 57.3788 154.635 59.2397 154.413 61.145C153.793 66.6391 151.046 71.1143 147.856 75.3678C146.261 77.4946 144.488 79.4884 142.716 81.5266C141.963 82.3685 141.608 83.2103 141.653 84.3623C141.741 85.3814 141.653 86.4448 141.874 87.5082C142.406 86.4005 142.893 85.2485 143.469 84.1851C144.798 81.7038 146.438 79.4884 148.697 77.7161C149.849 76.7857 151.134 76.254 152.552 76.0767C153.35 75.9881 154.236 76.1654 154.989 76.4755C155.875 76.7857 156.23 77.5832 156.274 78.558C156.363 80.9949 155.831 83.3432 155.388 85.6916C154.989 87.6854 154.59 89.6793 154.28 91.6731C154.192 92.1605 154.325 92.6922 154.502 93.1353C154.856 94.1544 155.521 94.4645 156.54 94.0215C157.072 93.7999 157.559 93.4454 158.002 93.091C158.445 92.7808 158.755 92.3378 159.198 91.9833C159.819 91.4516 159.952 90.9199 159.952 90.0337C159.774 85.0269 161.148 80.5962 165.534 77.6275C168.193 75.8552 171.206 75.3678 174.263 76.5198C175.903 77.1401 176.966 78.4251 177.365 80.1974C178.517 85.1156 175.947 88.7045 172.136 90.3439C170.719 90.9642 169.256 91.4073 167.794 91.939C167.484 92.0719 167.174 92.1605 166.819 92.3378C167.307 93.4011 168.149 93.8885 169.123 94.2873C171.029 95.0405 172.934 94.6861 174.706 94.0215C176.611 93.2682 178.339 92.1605 179.935 90.8313C180.555 90.2996 180.688 89.6793 180.688 88.926C180.688 85.4257 181.485 82.014 182.416 78.6466C183.125 76.121 185.916 75.678 187.688 76.0324C188.22 76.121 188.442 76.4755 188.353 77.0515C188.22 78.0263 188.087 79.0011 187.91 79.9758C187.467 82.2798 186.98 84.6282 186.536 86.9322C186.536 87.0208 186.536 87.1537 186.625 87.5082C187.201 86.2676 187.688 85.1599 188.22 84.1408C189.372 81.8811 190.834 79.8872 192.74 78.2035C194.024 77.0515 195.575 76.2983 197.303 75.9881C198.544 75.7666 199.785 75.9438 200.582 77.0515C201.202 77.8934 201.291 78.8681 201.114 79.9315C200.848 81.438 200.582 82.9445 200.405 84.4952C200.361 84.894 200.405 85.3371 200.493 85.7359C200.626 86.2676 200.892 86.755 201.557 86.7993C202.221 86.7993 202.797 86.3562 203.019 85.6916C203.373 84.5839 203.684 83.4762 204.171 82.4128C205.545 79.3998 207.849 77.3617 210.994 76.4312C213.476 75.7223 215.957 75.7223 218.172 77.3174C219.546 78.3364 220.21 79.71 220.255 81.3937C220.255 82.3685 220.299 83.4319 220.122 84.3623C219.634 86.9322 217.995 88.7045 215.78 89.9008C214.406 90.654 212.855 91.1414 211.393 91.7174C210.817 91.939 210.197 92.1162 209.311 92.3821L209.532 92.4264ZM125.126 80.5518C123.486 80.5518 122.334 81.1278 121.315 82.014C118.391 84.5396 117.416 87.907 117.15 91.5845C117.15 92.2491 117.416 93.0024 117.726 93.5784C118.302 94.6861 119.986 94.9076 120.961 94.1101C121.98 93.3125 122.644 92.2048 122.955 91.0085C123.531 88.6159 124.018 86.2233 124.505 83.8306C124.727 82.7672 124.904 81.7482 125.126 80.5075V80.5518ZM258.182 80.5518C256.765 80.5961 255.657 81.0835 254.682 81.8811C251.448 84.5839 250.251 88.1728 250.429 92.2048C250.517 94.0215 251.669 94.8633 252.998 94.5975C253.663 94.4645 254.372 93.9771 254.815 93.4454C255.79 92.3821 256.189 91.0085 256.499 89.5907C257.075 86.9322 257.606 84.2294 258.138 81.5709C258.182 81.2608 258.138 80.9506 258.138 80.5518H258.182ZM307.541 80.5518C305.858 80.5518 304.573 81.1278 303.598 82.0583C300.496 84.894 299.344 88.5716 299.699 92.6922C299.832 94.0658 301.205 94.9519 302.446 94.5532C303.066 94.3316 303.687 93.8885 304.13 93.3568C305.193 92.0276 305.548 90.3882 305.858 88.7488C306.345 86.046 306.921 83.3876 307.541 80.5962V80.5518ZM280.602 80.9506C280.248 81.0392 280.071 81.0835 279.893 81.1721C277.058 82.4571 275.507 84.8054 274.576 87.6411C274.045 89.2362 273.779 90.9642 274.31 92.6479C274.709 93.9328 275.64 94.7304 276.969 94.5532C277.545 94.4645 278.165 94.1987 278.608 93.7999C279.362 93.1353 280.026 92.3821 280.647 91.5845C280.912 91.1857 281.134 90.7427 281.001 90.078C280.735 88.5273 280.735 86.9322 280.691 85.3371C280.691 84.2737 280.691 83.2546 280.691 82.1912C280.691 81.7925 280.691 81.3937 280.647 80.9063L280.602 80.9506ZM286.584 80.2417C286.584 80.2417 286.805 80.2417 286.894 80.286C287.027 80.0644 287.204 79.8429 287.293 79.5771C287.824 78.2921 288.4 76.9629 288.932 75.678C290.128 72.665 291.192 69.6078 291.768 66.4176C292.034 64.9111 292.3 63.4047 292.477 61.8982C292.61 60.4803 292.477 59.0625 291.901 57.7333C291.546 56.8914 290.926 56.8471 290.439 57.6003C290.084 58.132 289.818 58.708 289.641 59.284C288.711 61.9868 288.223 64.8225 287.869 67.6582C287.647 69.209 287.514 70.8041 287.337 72.3549C287.16 74.0829 287.027 75.8109 286.85 77.5832C286.805 78.0706 286.717 78.558 286.672 79.0897C286.672 79.4885 286.628 79.8872 286.584 80.286V80.2417ZM142.539 75.7223C142.539 75.7223 142.716 75.8109 142.805 75.8552C143.115 75.545 143.469 75.2349 143.691 74.8804C144.887 73.0195 146.083 71.2029 147.191 69.2976C148.653 66.7721 149.539 64.0693 149.761 61.1893C149.849 60.1702 149.628 59.1068 149.406 58.132C149.318 57.7333 148.83 57.2459 148.476 57.1572C148.166 57.0686 147.678 57.4674 147.368 57.7776C147.014 58.132 146.748 58.5751 146.571 59.0625C145.906 60.7905 145.241 62.5628 144.754 64.3351C144.089 66.8164 143.558 69.3419 143.026 71.8232C142.76 73.1081 142.672 74.4373 142.494 75.7223H142.539ZM165.978 88.1728C167.218 88.4387 168.104 87.8183 169.035 87.4196C170.63 86.755 171.826 85.6472 172.402 83.9635C172.712 83.0774 172.624 82.2355 172.003 81.5266C171.383 80.7734 170.497 80.7291 169.699 81.0392C169.035 81.2608 168.37 81.7482 167.927 82.2798C166.509 83.9192 166.155 85.9574 166.022 88.1728H165.978ZM209.001 88.3057C210.817 87.9513 212.412 87.331 213.653 86.1346C214.229 85.5586 214.761 84.894 215.115 84.1408C215.47 83.3875 215.47 82.5457 215.026 81.7481C214.229 80.3746 212.058 80.5075 210.95 81.8368C209.488 83.6091 208.735 85.6916 209.001 88.2614V88.3057Z" fill="#055AA3"/>
<path d="M99.7818 60.6575C99.7818 65.3098 99.8704 69.9621 99.7375 74.6145C99.6932 76.1652 99.2058 77.716 98.6741 79.1782C97.1676 83.1216 94.6864 86.3561 91.1417 88.7487C87.6414 91.097 84.274 93.6226 80.7737 95.9709C79.4444 96.9013 77.938 97.2558 76.2986 97.3444C74.1275 97.433 73.1527 95.7493 73.0198 94.0656C72.8869 92.2933 73.4186 90.6982 73.8616 89.0588C75.8998 81.3493 78.0266 73.684 79.9761 65.9744C81.0395 61.7208 82.3245 57.5559 83.9195 53.5239C84.9386 50.954 86.0906 48.4728 87.863 46.3017C89.6796 44.0863 91.895 42.5798 94.8636 42.4469C98.1424 42.314 99.959 44.618 99.8704 47.0992C99.7375 51.6186 99.8704 56.138 99.8704 60.6575H99.7818Z" fill="#055AA3"/>
<path d="M207.981 29.9967C207.007 29.465 206.076 28.8447 205.146 28.2687C204.968 28.1358 204.658 28.0914 204.437 28.1358C203.816 28.313 203.24 28.5788 202.576 28.8447C203.019 29.2878 203.418 29.6422 203.772 29.9967C205.633 31.8133 207.45 33.6299 209.311 35.4909C210.285 36.4657 211.127 37.4847 211.659 38.7697C212.013 39.6558 211.792 40.1432 210.95 40.542C208.735 41.5611 206.475 42.5358 204.304 43.5992C203.861 43.8208 203.595 43.7322 203.196 43.5106C202.044 42.7574 200.892 42.0485 199.74 41.3395C198.81 40.7635 197.923 41.4724 196.86 41.3838C198.101 42.9346 199.253 44.3525 200.405 45.8146C200.05 46.0805 199.74 46.302 199.43 46.5236C199.43 46.5236 199.43 46.6122 199.474 46.6565C199.829 46.5679 200.183 46.5236 200.671 46.4349C200.804 48.3402 200.892 50.0682 201.025 51.8848C201.557 51.619 201.956 51.3088 202.443 51.0873C202.93 50.8657 203.152 50.5999 203.285 50.1125C203.639 48.7833 204.038 47.454 204.392 46.1248C204.481 45.7703 204.658 45.6374 205.013 45.5488C206.298 45.1943 207.538 44.8398 208.823 44.4411C209.842 44.1309 210.861 43.7322 211.836 43.3777C212.944 42.9789 213.564 43.2891 213.919 44.3968C214.096 44.9728 214.229 45.5488 214.229 46.1248C214.229 47.9414 214.14 49.7137 214.096 51.5303C214.007 53.5242 213.919 55.5181 213.83 57.5562C214.362 57.379 214.805 57.2018 215.292 57.0245C215.824 56.8473 216.134 56.4928 216.223 55.9611C216.311 55.6067 216.444 55.1636 216.533 54.7205C216.621 54.2774 216.932 53.347 217.197 52.5051C217.463 51.6633 217.773 50.6442 217.773 50.6442L218.571 47.454L219.236 45.1943C219.236 45.1943 220.122 42.0485 220.609 40.4534C220.653 40.2761 220.875 40.0989 221.052 40.0546C222.647 39.3457 224.242 38.681 225.793 37.8835C226.458 37.5733 227.034 37.1303 227.566 36.6429C227.787 36.4213 227.964 35.934 227.876 35.5795C227.876 35.358 227.388 35.1364 227.078 35.0921C226.635 35.0035 226.192 35.0035 225.749 35.0921C223.799 35.6238 221.894 36.1998 219.989 36.8201C219.59 36.953 219.28 36.9973 218.925 36.7758C218.394 36.4213 217.818 36.1112 217.286 35.7567C216.533 35.2693 214.938 34.2503 214.938 34.2503C214.938 34.2503 212.855 33.0539 212.811 33.0096C211.969 32.5222 210.241 31.4145 210.241 31.4145L207.937 29.9081L207.981 29.9967Z" fill="#055AA3"/>
<path d="M245.687 133.544C242.541 133.544 240.991 131.993 240.991 128.936V122.6H239.085V118.036H240.991V113.871H246.308V118.036H248.745V122.6H246.308V127.607C246.308 128.448 246.618 128.891 247.282 128.891C247.726 128.891 248.036 128.803 248.213 128.626L249.143 132.746C248.434 133.322 247.282 133.588 245.732 133.588L245.687 133.544Z" fill="#055AA3"/>
<path d="M255.834 133.19H250.517V118.036H255.834V119.764C256.189 119.188 256.765 118.701 257.562 118.258C258.36 117.815 259.113 117.593 259.777 117.593V122.689C259.512 122.6 259.157 122.511 258.758 122.511C258.227 122.511 257.651 122.6 257.075 122.822C256.499 123.043 256.1 123.353 255.834 123.708V133.145V133.19Z" fill="#055AA3"/>
<path d="M274.753 133.19H269.436V131.728C269.082 132.259 268.506 132.703 267.753 133.057C266.999 133.411 266.202 133.589 265.449 133.589C264.208 133.589 263.1 133.146 262.125 132.259C261.151 131.373 260.663 130.133 260.663 128.582C260.663 127.031 261.151 125.746 262.081 124.949C263.012 124.151 264.119 123.752 265.449 123.752C266.29 123.752 267.088 123.885 267.797 124.195C268.55 124.506 269.082 124.904 269.392 125.436V123.974C269.392 123.354 269.17 122.866 268.727 122.512C268.284 122.113 267.664 121.936 266.866 121.936C265.582 121.936 264.341 122.423 263.145 123.398L261.372 119.898C262.17 119.144 263.189 118.568 264.385 118.214C265.581 117.859 266.778 117.682 267.93 117.682C269.924 117.682 271.519 118.125 272.804 119.056C274.089 119.986 274.665 121.404 274.665 123.442V133.234L274.753 133.19ZM267.575 130.133C268.506 130.133 269.126 129.823 269.436 129.202V128.05C269.126 127.43 268.506 127.12 267.575 127.12C267.088 127.12 266.689 127.253 266.379 127.518C266.069 127.784 265.892 128.139 265.892 128.626C265.892 129.114 266.069 129.468 266.379 129.734C266.689 130 267.088 130.133 267.575 130.133Z" fill="#055AA3"/>
<path d="M286.495 133.19H280.868L275.728 118.037H281.355L283.659 126.81L286.052 118.037H291.635L286.495 133.19Z" fill="#055AA3"/>
<path d="M299.433 133.544C297.173 133.544 295.312 132.835 293.894 131.373C292.477 129.911 291.812 128.005 291.812 125.568C291.812 123.309 292.477 121.403 293.85 119.897C295.179 118.39 296.996 117.637 299.211 117.637C301.427 117.637 303.111 118.39 304.351 119.853C305.592 121.315 306.212 123.309 306.212 125.834V127.296H297.04C297.129 127.917 297.439 128.404 297.971 128.803C298.458 129.202 299.167 129.423 300.009 129.423C300.452 129.423 300.984 129.335 301.604 129.113C302.224 128.891 302.667 128.626 303.022 128.315L305.282 131.506C304.573 132.17 303.687 132.702 302.623 133.056C301.56 133.411 300.452 133.588 299.389 133.588L299.433 133.544ZM301.205 123.796C301.072 122.467 300.363 121.802 299.123 121.802C297.882 121.802 297.218 122.467 297.04 123.796H301.205Z" fill="#055AA3"/>
<path d="M313.301 133.19H307.984V112.276H313.301V133.19Z" fill="#055AA3"/>
<path d="M194.733 48.4732C179.403 52.6824 159.11 51.5304 145.418 42.4473C151.666 34.6048 156.23 26.3635 157.16 18.3438C157.825 -8.99423 123.353 -1.68342 129.202 22.9075C131.284 31.6362 136.202 38.1494 142.76 42.8018C132.791 55.6068 120.207 66.4179 107.89 76.8746C118.213 68.9434 133.5 56.9803 144.355 43.7765C158.578 52.8597 179.314 53.6572 194.778 48.4289L194.733 48.4732ZM131.24 22.5087C129.157 14.7105 132.835 5.09569 141.254 3.41199C150.159 1.28521 155.787 10.1468 155.033 18.2552C154.856 22.3315 153.261 26.3192 151.311 30.0411C149.052 33.9845 146.526 37.7506 143.779 41.3396C137.753 36.8645 133.145 30.6614 131.196 22.5087H131.24Z" fill="#055AA3"/>
</svg>
